<?xml version="1.0" encoding="utf-8"?>
<!-- Generator: Adobe Illustrator 26.2.1, SVG Export Plug-In . SVG Version: 6.00 Build 0)  -->
<svg version="1.1" xmlns="http://www.w3.org/2000/svg" xmlns:xlink="http://www.w3.org/1999/xlink" x="0px" y="0px"
	 viewBox="0 0 128 128" style="enable-background:new 0 0 128 128;" xml:space="preserve">
<style type="text/css">
	.st0{fill:#41A5EE;}
	.st1{fill:#2B7CD3;}
	.st2{fill:#185ABD;}
	.st3{fill:#103F91;}
	.st4{fill:#FFFFFF;}
	.st5{fill:#2B579A;}
	.st6{font-family:'MyriadPro-Regular';}
	.st7{font-size:28.2983px;}
	.st8{display:none;}
	.st9{display:inline;opacity:0.75;}
	.st10{opacity:0.75;fill:#C1272D;}
</style>
<g id="Layer_3">
	<path class="st0" d="M0,17.1l0,93.9c0,3.2,2.6,5.9,5.9,5.9l0,0H32l16-54.4L32,11.2H5.9C2.6,11.2,0,13.8,0,17.1L0,17.1z"/>
	<path class="st1" d="M32,11.2v105.6h32l9.6-54.4L64,11.2H32z"/>
	<path class="st2" d="M64,116.8h32l6.4-51.2L96,11.2H64V116.8z"/>
	<path class="st3" d="M128,110.9V17.1c0-3.2-2.6-5.9-5.9-5.9l0,0H96v105.6h26.1C125.4,116.8,128,114.2,128,110.9L128,110.9z"/>
	<g>
		<g>
			<path class="st4" d="M97.3,88.5H30.7c-13.6,0-24.5-11-24.5-24.5v0c0-13.6,11-24.5,24.5-24.5h66.5c13.6,0,24.5,11,24.5,24.5v0
				C121.8,77.6,110.8,88.5,97.3,88.5z"/>
			<circle class="st5" cx="98.9" cy="64" r="13.6"/>
		</g>
		<g>
			<text transform="matrix(1 0 0 1 24.2075 74.4132)" class="st5 st6 st7">On</text>
		</g>
	</g>
</g>
<g id="Layer_2" class="st8">
	<path class="st9" d="M105.1,62.2H90.5c-1.1,0-2-0.9-2-2V6.3c0-3.5-2.8-6.3-6.2-6.3H45.7c-3.4,0-6.2,2.8-6.2,6.3v53.9
		c0,1.1-0.9,2-2,2H22.9c-7.5,0-11.5,9-6.6,14.7l41.1,48c3.5,4.1,9.7,4.1,13.2,0l41.1-48C116.6,71.1,112.6,62.2,105.1,62.2z"/>
</g>
<g id="Layer_4">
	<path class="st10" d="M123.9,4.1L123.9,4.1c-2.1-2.1-5.6-2.1-7.8,0L67.9,52.3c-2.1,2.1-5.6,2.1-7.8,0L11.8,4.1
		c-2.1-2.1-5.6-2.1-7.8,0l0,0c-2.1,2.1-2.1,5.6,0,7.8l48.3,48.3c2.1,2.1,2.1,5.6,0,7.8L4.1,116.2c-2.1,2.1-2.1,5.6,0,7.8l0,0
		c2.1,2.1,5.6,2.1,7.8,0l48.3-48.3c2.1-2.1,5.6-2.1,7.8,0l48.3,48.3c2.1,2.1,5.6,2.1,7.8,0l0,0c2.1-2.1,2.1-5.6,0-7.8L75.7,67.9
		c-2.1-2.1-2.1-5.6,0-7.8l48.3-48.3C126.1,9.7,126.1,6.2,123.9,4.1z"/>
</g>
</svg>
